<svg width="30" height="32" viewBox="0 0 30 32" fill="none" xmlns="http://www.w3.org/2000/svg">
<path d="M15.9357 0.220894C15.3467 -0.0736313 14.6533 -0.0736314 14.0643 0.220894L0.660943 6.92257C-0.213192 7.35963 -0.222174 8.60389 0.645559 9.05353L14.0374 15.9929C14.641 16.3057 15.359 16.3057 15.9627 15.9929L29.3545 9.05353C30.2222 8.60389 30.2132 7.35963 29.3391 6.92257L15.9357 0.220894Z" fill="#002033"/>
<path d="M2.9637 13.2437L0.660924 14.3951C-0.21321 14.8322 -0.222192 16.0764 0.64554 16.5261L14.0373 23.4655C14.641 23.7783 15.359 23.7783 15.9626 23.4655L29.3544 16.5261C30.2222 16.0764 30.2132 14.8322 29.3391 14.3951L27.0363 13.2437L15.9626 18.9819C15.359 19.2947 14.641 19.2947 14.0373 18.9819L2.9637 13.2437Z" fill="#002033"/>
<path d="M2.9637 20.7563L0.660924 21.9077C-0.21321 22.3448 -0.222192 23.589 0.64554 24.0387L14.0373 30.9781C14.641 31.2909 15.359 31.2909 15.9626 30.9781L29.3544 24.0387C30.2222 23.589 30.2132 22.3448 29.3391 21.9077L27.0363 20.7563L15.9626 26.4945C15.359 26.8073 14.641 26.8073 14.0373 26.4945L2.9637 20.7563Z" fill="#002033"/>
</svg>
